<svg width="32" height="32" viewBox="0 0 32 32" fill="none" xmlns="http://www.w3.org/2000/svg">
<rect width="32" height="32" rx="10" fill="white"/>
<path d="M29.2624 7.53921C28.5311 8.63229 27.6339 9.56408 26.5707 10.3346C26.5812 10.5412 26.5865 10.7748 26.5865 11.0353C26.5865 12.4826 26.3765 13.9316 25.9565 15.3824C25.5365 16.8332 24.895 18.2219 24.0319 19.5484C23.1688 20.875 22.1408 22.0502 20.9477 23.074C19.7546 24.0979 18.3204 24.9143 16.6452 25.5232C14.97 26.132 13.1747 26.4365 11.2591 26.4365C8.26961 26.4365 5.51656 25.6255 2.99998 24.0036C3.44665 24.0535 3.87504 24.0785 4.28515 24.0785C6.78264 24.0785 9.0133 23.3055 10.9771 21.7596C9.81266 21.7381 8.76979 21.3779 7.84852 20.679C6.92725 19.9801 6.29325 19.087 5.94652 17.9997C6.28924 18.0653 6.62748 18.0981 6.96127 18.0981C7.44172 18.0981 7.91448 18.0351 8.37955 17.9092C7.13684 17.6591 6.10591 17.0371 5.28675 16.0434C4.46762 15.0496 4.05805 13.9026 4.05805 12.6023V12.5353C4.82083 12.9597 5.63446 13.1854 6.49893 13.2125C5.76276 12.7194 5.17909 12.0763 4.74791 11.2833C4.31671 10.4902 4.1011 9.63205 4.1011 8.7087C4.1011 7.73487 4.34396 6.82805 4.82966 5.98824C6.18108 7.65467 7.81862 8.98653 9.74226 9.98383C11.6659 10.9811 13.7297 11.535 15.9334 11.6455C15.8395 11.2518 15.7924 10.8411 15.7922 10.4132C15.7922 8.91911 16.3184 7.6434 17.3707 6.58604C18.4231 5.52868 19.6927 5 21.1796 5C22.7363 5 24.0476 5.56957 25.1133 6.70872C26.331 6.46636 27.4711 6.02799 28.5337 5.39362C28.1244 6.68824 27.3355 7.68695 26.1672 8.38975C27.241 8.26153 28.2728 7.97802 29.2624 7.53921Z" fill="black"/>
</svg>
