<svg width="32" height="32" viewBox="0 0 32 32" fill="none" xmlns="http://www.w3.org/2000/svg">
<rect width="32" height="32" rx="10" fill="white"/>
<path fill-rule="evenodd" clip-rule="evenodd" d="M13.6036 13.2246H16.9049V14.877C17.3805 13.9267 18.6 13.0728 20.432 13.0728C23.944 13.0728 24.7778 14.9645 24.7778 18.4355V24.8637H21.2222V19.2259C21.2222 17.2493 20.7467 16.1346 19.536 16.1346C17.8569 16.1346 17.1591 17.3359 17.1591 19.225V24.8637H13.6036V13.2246ZM7.50668 24.7119H11.0622V13.0728H7.50668V24.7119ZM11.5716 9.27762C11.5717 9.57709 11.5126 9.87359 11.3977 10.1499C11.2828 10.4262 11.1144 10.6768 10.9022 10.8871C10.4724 11.3164 9.89051 11.5567 9.28446 11.5552C8.67947 11.5548 8.09896 11.3152 7.66846 10.888C7.45709 10.677 7.28925 10.4261 7.17454 10.1498C7.05984 9.87341 7.00053 9.57704 7.00002 9.27762C7.00002 8.67294 7.24002 8.09415 7.66935 7.66721C8.09947 7.23952 8.68023 6.99973 9.28535 7C9.89157 7 10.4729 7.24027 10.9022 7.66721C11.3307 8.09415 11.5716 8.67294 11.5716 9.27762Z" fill="black"/>
</svg>
