<svg width="20" height="17" viewBox="0 0 20 17" fill="none" xmlns="http://www.w3.org/2000/svg">
<path d="M16.5999 0.800003C17.3956 0.800003 18.1586 1.11607 18.7212 1.67868C19.2838 2.24129 19.5999 3.00435 19.5999 3.8V13.4C19.5999 14.1957 19.2838 14.9587 18.7212 15.5213C18.1586 16.0839 17.3956 16.4 16.5999 16.4H3.3999C2.60425 16.4 1.84119 16.0839 1.27858 15.5213C0.715973 14.9587 0.399902 14.1957 0.399902 13.4V3.8C0.399902 3.00435 0.715973 2.24129 1.27858 1.67868C1.84119 1.11607 2.60425 0.800003 3.3999 0.800003H16.5999ZM18.3999 5.5532L10.3047 10.3172C10.2282 10.3621 10.1426 10.3895 10.0542 10.3974C9.96583 10.4053 9.87678 10.3935 9.7935 10.3628L9.6951 10.3172L1.5999 5.5556V13.4C1.5999 13.8774 1.78954 14.3352 2.12711 14.6728C2.46468 15.0104 2.92251 15.2 3.3999 15.2H16.5999C17.0773 15.2 17.5351 15.0104 17.8727 14.6728C18.2103 14.3352 18.3999 13.8774 18.3999 13.4V5.5532ZM16.5999 2H3.3999C2.92251 2 2.46468 2.18965 2.12711 2.52721C1.78954 2.86478 1.5999 3.32261 1.5999 3.8V4.1624L9.9999 9.104L18.3999 4.16V3.8C18.3999 3.32261 18.2103 2.86478 17.8727 2.52721C17.5351 2.18965 17.0773 2 16.5999 2Z" fill="black"/>
</svg>
